<?xml version="1.0" encoding="utf-8"?>
<!-- Generator: Adobe Illustrator 18.1.0, SVG Export Plug-In . SVG Version: 6.00 Build 0)  -->
<!DOCTYPE svg PUBLIC "-//W3C//DTD SVG 1.1//EN" "http://www.w3.org/Graphics/SVG/1.1/DTD/svg11.dtd">
<svg version="1.1" id="all" xmlns="http://www.w3.org/2000/svg" xmlns:xlink="http://www.w3.org/1999/xlink" x="0px" y="0px"
	 width="885px" height="470px" viewBox="0 0 885 470" enable-background="new 0 0 885 470" xml:space="preserve">
<g>
	<polygon fill="#2D3339" points="434,318 434,383.5 441.7,370.9 449,384.3 449,318 	"/>
	<polygon fill="#2D3339" points="501,318 501,390.1 518,381.5 518,318 	"/>
	<polygon fill="#2D3339" points="467,318 467,407.2 485,398.7 485,318 	"/>
	<polygon fill="#2D3339" points="367,318 367,381.5 383,390.4 383,318 	"/>
	<polygon fill="#2D3339" points="545.8,318 534,318 534,347.5 	"/>
	<polygon fill="#2D3339" points="401,318 401,399.3 416,408.3 416,318 	"/>
	<polygon fill="#2D3339" points="344.1,318 349,339.6 349,318 	"/>
	<polygon fill="#FFDD6E" points="349,318 349,339.6 358.9,377.5 367,381.5 367,318 	"/>
	<polygon fill="#FFDD6E" points="383,318 383,390.4 401,399.3 401,318 	"/>
	<polygon fill="#FFDD6E" points="416,318 416,408.3 416.5,408.3 434,383.5 434,318 	"/>
	<polygon fill="#9C74C3" points="449,318 449,384.3 464.4,408.3 467,407.2 467,318 	"/>
	<polygon fill="#9C74C3" points="485,318 485,398.7 501,390.1 501,318 	"/>
	<polygon fill="#9C74C3" points="534,347.5 534,318 518,318 518,381.5 525.5,377.5 	"/>
</g>
</svg>
