<?xml version="1.0" encoding="utf-8"?>
<!-- Generator: Adobe Illustrator 18.1.0, SVG Export Plug-In . SVG Version: 6.00 Build 0)  -->
<!DOCTYPE svg PUBLIC "-//W3C//DTD SVG 1.1//EN" "http://www.w3.org/Graphics/SVG/1.1/DTD/svg11.dtd">
<svg version="1.1" id="all" xmlns="http://www.w3.org/2000/svg" xmlns:xlink="http://www.w3.org/1999/xlink" x="0px" y="0px"
	 width="885px" height="470px" viewBox="0 0 885 470" enable-background="new 0 0 885 470" xml:space="preserve">
<g>
	<g>
		<polygon fill="#8361B4" points="419.8,71 470.2,71 455.4,41.2 445,19.5 		"/>
		<polygon fill="#FFD55C" points="429.4,52.7 425.8,60.3 458.5,48.5 455.4,42 		"/>
		<polygon fill="#FF8DCF" points="425.8,60.3 421,69.9 462.6,56.7 458.5,48.5 		"/>
		<polygon fill="#4DCBE2" points="434.6,42 429.4,52.7 455.4,41.9 451.7,34.3 		"/>
	</g>
	<polygon fill="#FFD55C" points="445,9.9 447,15.6 452.5,13 449.9,18.5 455.6,20.5 449.9,22.5 452.5,28 447,25.4 445,31 443,25.4 
		437.5,28 440.1,22.5 434.4,20.5 440.1,18.5 437.5,13 443,15.6 	"/>
</g>
</svg>
