<?xml version="1.0" encoding="utf-8"?>
<!-- Generator: Adobe Illustrator 18.1.0, SVG Export Plug-In . SVG Version: 6.00 Build 0)  -->
<!DOCTYPE svg PUBLIC "-//W3C//DTD SVG 1.1//EN" "http://www.w3.org/Graphics/SVG/1.1/DTD/svg11.dtd">
<svg version="1.1" id="all" xmlns="http://www.w3.org/2000/svg" xmlns:xlink="http://www.w3.org/1999/xlink" x="0px" y="0px"
	 width="885px" height="470px" viewBox="0 0 885 470" enable-background="new 0 0 885 470" xml:space="preserve">
<g>
	<g>
		<polygon fill="#357BAD" points="431,318 431,383.2 438.1,371.2 445,383.9 445,318 		"/>
		<polygon fill="#357BAD" points="494,318 494,389.4 511,381.3 511,318 		"/>
		<polygon fill="#357BAD" points="462,318 462,405.6 479,397.5 479,318 		"/>
		<polygon fill="#357BAD" points="367,318 367,381.2 382,389.7 382,318 		"/>
		<polygon fill="#357BAD" points="536.4,318 525,318 525,349.1 		"/>
		<polygon fill="#357BAD" points="399,318 399,398.1 414,406.6 414,318 		"/>
		<polygon fill="#357BAD" points="345.5,318 350,341.6 350,318 		"/>
		<polygon fill="#D73636" points="350,318 350,341.6 359.4,377.5 367,381.2 367,318 		"/>
		<polygon fill="#D73636" points="382,318 382,389.7 399,398.1 399,318 		"/>
		<polygon fill="#D73636" points="414,318 414,406.6 414.5,406.6 431,383.2 431,318 		"/>
		<polygon fill="#D73636" points="445,318 445,383.9 459.6,406.6 462,405.6 462,318 		"/>
		<polygon fill="#D73636" points="479,318 479,397.5 494,389.4 494,318 		"/>
		<polygon fill="#D73636" points="525,349.1 525,318 511,318 511,381.3 517.5,377.5 		"/>
	</g>
	<polygon fill="#FFFFFF" points="398.8,332.3 402.9,345 416.3,345 405.5,352.7 409.6,365.3 398.8,357.4 388,365.3 392.1,352.7 
		381.3,345 394.6,345 	"/>
	<polygon fill="#FFFFFF" points="479.7,332.3 483.8,345 497.2,345 486.4,352.7 490.5,365.3 479.7,357.4 468.9,365.3 473,352.7 
		462.2,345 475.6,345 	"/>
</g>
</svg>
