<?xml version="1.0" encoding="utf-8"?>
<!-- Generator: Adobe Illustrator 18.1.0, SVG Export Plug-In . SVG Version: 6.00 Build 0)  -->
<!DOCTYPE svg PUBLIC "-//W3C//DTD SVG 1.1//EN" "http://www.w3.org/Graphics/SVG/1.1/DTD/svg11.dtd">
<svg version="1.1" id="all" xmlns="http://www.w3.org/2000/svg" xmlns:xlink="http://www.w3.org/1999/xlink" x="0px" y="0px"
	 width="885px" height="470px" viewBox="0 0 885 470" enable-background="new 0 0 885 470" xml:space="preserve">
<g>
	<path fill="#2D3339" d="M462.3,141.1c0,10.9-8.9,19.8-19.8,19.8s-19.8-8.9-19.8-19.8s8.7-6.7,19.6-6.7
		C453.3,134.4,462.3,130.2,462.3,141.1z"/>
	<path fill="#F85C5C" d="M442.5,160.9c-10.9,0-17.7-7.2,0.2-7.9C462.5,152.2,453.4,160.9,442.5,160.9z"/>
	<path fill="#FFFFFF" d="M440.8,145.6l-3.6,6.6c-1.2,2.2-4.4,2.2-5.6,0l-3.6-6.6l6.4,0.6L440.8,145.6z"/>
	<path fill="#FFFFFF" d="M457.8,145.6l-3.6,6.6c-1.2,2.2-4.4,2.2-5.6,0l-3.6-6.6l6.4,0.6L457.8,145.6z"/>
	<path fill="#E08B2C" d="M414.3,137c0-15.5,12.6-28.2,28.2-28.2s28.2,12.6,28.2,28.2c0,15.5-12.4,9.5-27.9,9.5
		S414.3,152.6,414.3,137z"/>
	<path fill="#2D3339" d="M426.9,123.7c0-9.9,1.1-15.2,14.7-15.3c15.8-0.1,16.9,5.3,16.9,15.3s-9.3,4.5-15.6,13.1
		C434.5,126.2,426.9,133.7,426.9,123.7z"/>
</g>
</svg>
