<?xml version="1.0" encoding="utf-8"?>
<!-- Generator: Adobe Illustrator 18.1.0, SVG Export Plug-In . SVG Version: 6.00 Build 0)  -->
<!DOCTYPE svg PUBLIC "-//W3C//DTD SVG 1.1//EN" "http://www.w3.org/Graphics/SVG/1.1/DTD/svg11.dtd">
<svg version="1.1" id="Layer_1" xmlns="http://www.w3.org/2000/svg" xmlns:xlink="http://www.w3.org/1999/xlink" x="0px" y="0px"
	 width="36px" height="36px" viewBox="-424 218 36 36" enable-background="new -424 218 36 36" xml:space="preserve">
<g opacity="0.5">
	<circle fill="#EF3C3C" cx="-414.6" cy="236" r="7.9"/>
</g>
<g opacity="0.5">
	<circle fill="#EF3C3C" cx="-397.4" cy="236" r="7.9"/>
</g>
<g>
	<g>
		<path fill="#2D3339" d="M-414.6,244.9c-4.9,0-8.9-4-8.9-8.9s4-8.9,8.9-8.9s8.9,4,8.9,8.9S-409.7,244.9-414.6,244.9z M-414.6,229.1
			c-3.8,0-6.9,3.1-6.9,6.9c0,3.8,3.1,6.9,6.9,6.9s6.9-3.1,6.9-6.9C-407.7,232.2-410.8,229.1-414.6,229.1z"/>
	</g>
	<g>
		<path fill="#2D3339" d="M-397.4,244.9c-4.9,0-8.9-4-8.9-8.9s4-8.9,8.9-8.9c4.9,0,8.9,4,8.9,8.9S-392.5,244.9-397.4,244.9z
			 M-397.4,229.1c-3.8,0-6.9,3.1-6.9,6.9c0,3.8,3.1,6.9,6.9,6.9c3.8,0,6.9-3.1,6.9-6.9C-390.5,232.2-393.6,229.1-397.4,229.1z"/>
	</g>
	<g>
		<rect x="-410" y="229" fill="#2D3339" width="8" height="2"/>
	</g>
</g>
<g>
	<line fill="none" x1="-410" y1="230" x2="-402" y2="230"/>
</g>
</svg>
