<?xml version="1.0" encoding="utf-8"?>
<!-- Generator: Adobe Illustrator 18.1.0, SVG Export Plug-In . SVG Version: 6.00 Build 0)  -->
<!DOCTYPE svg PUBLIC "-//W3C//DTD SVG 1.1//EN" "http://www.w3.org/Graphics/SVG/1.1/DTD/svg11.dtd">
<svg version="1.1" id="Layer_1" xmlns="http://www.w3.org/2000/svg" xmlns:xlink="http://www.w3.org/1999/xlink" x="0px" y="0px"
	 width="36px" height="36px" viewBox="0 0 36 36" enable-background="new 0 0 36 36" xml:space="preserve">
<g>
	<g>
		<polygon fill="#8361B4" points="4.7,34 31.3,34 23.5,18.4 18,6.9 		"/>
		<polygon fill="#FFD55C" points="9.8,24.5 7.9,28.5 25.1,22.3 23.5,18.9 		"/>
		<polygon fill="#FF8DCF" points="7.9,28.5 5.4,33.6 27.2,26.6 25.1,22.3 		"/>
		<polygon fill="#4DCBE2" points="12.5,18.9 9.8,24.5 23.5,18.8 21.5,14.8 		"/>
	</g>
	<polygon fill="#FFD55C" points="18,2 19.1,5 21.9,3.6 20.6,6.5 23.6,7.6 20.6,8.6 21.9,11.5 19.1,10.1 18,13.1 16.9,10.1 
		14.1,11.5 15.4,8.6 12.4,7.6 15.4,6.5 14.1,3.6 16.9,5 	"/>
</g>
</svg>
