<?xml version="1.0" encoding="utf-8"?>
<!-- Generator: Adobe Illustrator 18.1.0, SVG Export Plug-In . SVG Version: 6.00 Build 0)  -->
<!DOCTYPE svg PUBLIC "-//W3C//DTD SVG 1.1//EN" "http://www.w3.org/Graphics/SVG/1.1/DTD/svg11.dtd">
<svg version="1.1" id="Layer_1" xmlns="http://www.w3.org/2000/svg" xmlns:xlink="http://www.w3.org/1999/xlink" x="0px" y="0px"
	 width="36px" height="36px" viewBox="0 0 36 36" enable-background="new 0 0 36 36" xml:space="preserve">
<g>
	<rect x="0.7" y="26.2" fill="#2D3339" width="34.7" height="1.5"/>
	<path fill="#FF4F7A" d="M33.8,26.2H2.9v-8.3c0-4.4,3.6-8,8-8h14.9c4.4,0,8,3.6,8,8V26.2z"/>
	<rect x="17.2" y="8.3" fill="#2D3339" width="3.1" height="1.5"/>
	<g>
		<path fill="#FFFFFF" d="M8.9,20.2H8.8c-0.2,0-0.3-0.2-0.3-0.3s0.2-0.3,0.3-0.3H9l0.1-0.8H8.9c-0.2,0-0.3-0.2-0.3-0.3
			S8.8,18,8.9,18h0.3l0.1-0.5c0-0.2,0.2-0.3,0.3-0.3c0.2,0,0.4,0.2,0.3,0.4L10,18h0.7l0.1-0.5c0-0.2,0.2-0.3,0.3-0.3
			c0.2,0,0.4,0.2,0.3,0.4L11.4,18h0.1c0.2,0,0.3,0.2,0.3,0.3s-0.2,0.3-0.3,0.3h-0.2l-0.1,0.8h0.2c0.2,0,0.3,0.2,0.3,0.3
			s-0.2,0.3-0.3,0.3h-0.3L11,20.8c0,0.2-0.2,0.3-0.3,0.3c-0.2,0-0.4-0.2-0.3-0.4l0.1-0.4H9.6l-0.1,0.6c0,0.1-0.2,0.3-0.3,0.3
			c-0.2,0-0.4-0.2-0.3-0.4L8.9,20.2z M10.5,19.5l0.1-0.8H9.9l-0.1,0.8H10.5z"/>
		<path fill="#FFFFFF" d="M13.5,19.5l-1.2-1.7c-0.1-0.1-0.1-0.2-0.1-0.3c0-0.2,0.2-0.4,0.4-0.4c0.2,0,0.3,0.1,0.4,0.3l0.9,1.3
			l0.9-1.3c0.1-0.2,0.2-0.3,0.4-0.3c0.3,0,0.4,0.2,0.4,0.4c0,0.1-0.1,0.2-0.1,0.3l-1.2,1.7v1.1c0,0.2-0.2,0.4-0.4,0.4
			c-0.2,0-0.4-0.2-0.4-0.4V19.5z"/>
		<path fill="#FFFFFF" d="M15.9,19.1L15.9,19.1c0-1.1,0.9-2,2-2c1.2,0,2,0.9,2,2v0c0,1.1-0.9,2-2,2C16.8,21.1,15.9,20.2,15.9,19.1z
			 M19.1,19.1L19.1,19.1c0-0.7-0.5-1.2-1.2-1.2s-1.1,0.5-1.1,1.2v0c0,0.7,0.5,1.2,1.2,1.2C18.6,20.3,19.1,19.8,19.1,19.1z"/>
		<path fill="#FFFFFF" d="M20.7,17.6c0-0.2,0.2-0.4,0.4-0.4c0.2,0,0.4,0.2,0.4,0.4v2.7h1.6c0.2,0,0.4,0.2,0.4,0.4
			c0,0.2-0.2,0.4-0.4,0.4h-2c-0.2,0-0.4-0.2-0.4-0.4V17.6z"/>
		<path fill="#FFFFFF" d="M23.7,19.1L23.7,19.1c0-1.1,0.9-2,2-2c1.2,0,2,0.9,2,2v0c0,1.1-0.9,2-2,2C24.6,21.1,23.7,20.2,23.7,19.1z
			 M26.9,19.1L26.9,19.1c0-0.7-0.5-1.2-1.2-1.2s-1.1,0.5-1.1,1.2v0c0,0.7,0.5,1.2,1.2,1.2C26.5,20.3,26.9,19.8,26.9,19.1z"/>
	</g>
</g>
</svg>
