<?xml version="1.0" encoding="utf-8"?>
<!-- Generator: Adobe Illustrator 18.1.0, SVG Export Plug-In . SVG Version: 6.00 Build 0)  -->
<!DOCTYPE svg PUBLIC "-//W3C//DTD SVG 1.1//EN" "http://www.w3.org/Graphics/SVG/1.1/DTD/svg11.dtd">
<svg version="1.1" id="Layer_1" xmlns="http://www.w3.org/2000/svg" xmlns:xlink="http://www.w3.org/1999/xlink" x="0px" y="0px"
	 width="36px" height="36px" viewBox="0 0 36 36" enable-background="new 0 0 36 36" xml:space="preserve">
<g>
	<g>
		<polygon fill="#357BAD" points="16,10 16,22.3 17.5,20.1 19,22.5 19,10 		"/>
		<polygon fill="#357BAD" points="28,10 28,23.5 31,22 31,10 		"/>
		<polygon fill="#357BAD" points="22,10 22,26.5 25,25 25,10 		"/>
		<polygon fill="#357BAD" points="4,10 4,22 7,23.5 7,10 		"/>
		<polygon fill="#357BAD" points="36,10 34,10 34,15.9 		"/>
		<polygon fill="#357BAD" points="10,10 10,25.1 13,26.7 13,10 		"/>
		<polygon fill="#357BAD" points="0,10 1,14.5 1,10 		"/>
		<polygon fill="#D73636" points="1,10 1,14.5 2.7,21.2 4,22 4,10 		"/>
		<polygon fill="#D73636" points="7,10 7,23.5 10,25.1 10,10 		"/>
		<polygon fill="#D73636" points="13,10 13,26.7 13,26.7 16,22.3 16,10 		"/>
		<polygon fill="#D73636" points="19,10 19,22.5 21.6,26.7 22,26.5 22,10 		"/>
		<polygon fill="#D73636" points="25,10 25,25 28,23.5 28,10 		"/>
		<polygon fill="#D73636" points="34,15.9 34,10 31,10 31,22 32.4,21.2 		"/>
	</g>
	<polygon fill="#FFFFFF" points="10,12.6 10.8,15 13.3,15 11.3,16.5 12.1,18.9 10,17.4 8,18.9 8.8,16.5 6.7,15 9.3,15 	"/>
	<polygon fill="#FFFFFF" points="25.3,12.6 26.1,15 28.6,15 26.6,16.5 27.3,18.9 25.3,17.4 23.3,18.9 24,16.5 22,15 24.5,15 	"/>
</g>
</svg>
