<?xml version="1.0" encoding="utf-8"?>
<!-- Generator: Adobe Illustrator 18.1.0, SVG Export Plug-In . SVG Version: 6.00 Build 0)  -->
<!DOCTYPE svg PUBLIC "-//W3C//DTD SVG 1.1//EN" "http://www.w3.org/Graphics/SVG/1.1/DTD/svg11.dtd">
<svg version="1.1" id="Layer_1" xmlns="http://www.w3.org/2000/svg" xmlns:xlink="http://www.w3.org/1999/xlink" x="0px" y="0px"
	 width="36px" height="36px" viewBox="0 0 36 36" enable-background="new 0 0 36 36" xml:space="preserve">
<g>
	<polygon fill="#2D3339" points="16,10 16,21.6 17.5,19.4 19,21.8 19,10 	"/>
	<polygon fill="#2D3339" points="28,10 28,22.8 31,21.3 31,10 	"/>
	<polygon fill="#2D3339" points="22,10 22,25.8 25,24.3 25,10 	"/>
	<polygon fill="#2D3339" points="4,10 4,21.3 7,22.8 7,10 	"/>
	<polygon fill="#2D3339" points="36,10 34,10 34,15.2 	"/>
	<polygon fill="#2D3339" points="10,10 10,24.4 13,26 13,10 	"/>
	<polygon fill="#2D3339" points="0,10 1,13.8 1,10 	"/>
	<polygon fill="#FFDD6E" points="1,10 1,13.8 2.7,20.5 4,21.3 4,10 	"/>
	<polygon fill="#FFDD6E" points="7,10 7,22.8 10,24.4 10,10 	"/>
	<polygon fill="#FFDD6E" points="13,10 13,26 13,26 16,21.6 16,10 	"/>
	<polygon fill="#9C74C3" points="19,10 19,21.8 21.6,26 22,25.8 22,10 	"/>
	<polygon fill="#9C74C3" points="25,10 25,24.3 28,22.8 28,10 	"/>
	<polygon fill="#9C74C3" points="34,15.2 34,10 31,10 31,21.3 32.4,20.5 	"/>
</g>
</svg>
